<?xml version="1.0" encoding="UTF-8" standalone="no"?>
<svg xmlns="http://www.w3.org/2000/svg" xmlns:xlink="http://www.w3.org/1999/xlink" t="1570270792373" class="icon" viewBox="0 0 1024 1024" version="1.1" p-id="9264" width="200" height="200">
	<defs>
		<style type="text/css" />
	</defs>
	<path d="M168.832 359.04L489.813333 162.986667a42.666667 42.666667 0 0 1 44.458667 0l320.938667 196.096A85.333333 85.333333 0 0 1 896 431.872V810.666667a85.333333 85.333333 0 0 1-85.333333 85.333333H213.333333a85.333333 85.333333 0 0 1-85.333333-85.333333v-378.794667a85.333333 85.333333 0 0 1 40.832-72.832z" fill="#000000" p-id="9265" style="fill: #1890ff;" />
	<path d="M588.8 512c-27.477333 0-59.605333 31.146667-76.8 51.2-17.194667-20.053333-49.322667-51.2-76.8-51.2-48.64 0-76.8 37.930667-76.8 86.186667 0 53.461333 51.2 110.08 153.6 169.813333 102.4-59.733333 153.6-115.2 153.6-166.4 0-48.256-28.16-89.6-76.8-89.6z" fill="#fff" p-id="9266"/>
</svg>
